{
  "asset": {
    "version": "2.0",
    "generator": "THREE.GLTFExporter"
  },
  "scenes": [
    {
      "name": "Scene",
      "nodes": [
        5,
        6
      ]
    }
  ],
  "scene": 0,
  "nodes": [
    {
      "name": "Object_2",
      "extras": {
        "name": "Object_2"
      },
      "mesh": 0
    },
    {
      "name": "Object_3",
      "extras": {
        "name": "Object_3"
      },
      "mesh": 1
    },
    {
      "name": "Object_4",
      "extras": {
        "name": "Object_4"
      },
      "mesh": 2
    },
    {
      "name": "6791dc04b3dc4d78a25176a4667edb7aobjcleanermaterialmergergles",
      "extras": {
        "name": "6791dc04b3dc4d78a25176a4667edb7a.obj.cleaner.materialmerger.gles"
      },
      "children": [
        0,
        1,
        2
      ]
    },
    {
      "matrix": [
        0.025732416659593582,
        0,
        0,
        0,
        0,
        5.713744290945751e-18,
        -0.025732416659593582,
        0,
        0,
        0.025732416659593582,
        5.713744290945751e-18,
        0,
        0,
        0,
        0,
        1
      ],
      "name": "Sketchfab_model",
      "extras": {
        "name": "Sketchfab_model"
      },
      "children": [
        3
      ]
    },
    {
      "matrix": [
        6,
        0,
        0,
        0,
        0,
        6,
        0,
        0,
        0,
        0,
        6,
        0,
        0,
        3.32,
        0,
        1
      ],
      "name": "scene.gltf",
      "children": [
        4
      ]
    },
    {
      "name": "PerspectiveCamera",
      "camera": 0
    }
  ],
  "bufferViews": [
    {
      "buffer": 0,
      "byteOffset": 0,
      "byteLength": 54264,
      "target": 34962,
      "byteStride": 12
    },
    {
      "buffer": 0,
      "byteOffset": 54264,
      "byteLength": 54264,
      "target": 34962,
      "byteStride": 12
    },
    {
      "buffer": 0,
      "byteOffset": 108528,
      "byteLength": 36176,
      "target": 34962,
      "byteStride": 8
    },
    {
      "buffer": 0,
      "byteOffset": 144704,
      "byteLength": 34560,
      "target": 34963
    },
    {
      "buffer": 0,
      "byteOffset": 179264,
      "byteLength": 2736,
      "target": 34962,
      "byteStride": 12
    },
    {
      "buffer": 0,
      "byteOffset": 182000,
      "byteLength": 2736,
      "target": 34962,
      "byteStride": 12
    },
    {
      "buffer": 0,
      "byteOffset": 184736,
      "byteLength": 1824,
      "target": 34962,
      "byteStride": 8
    },
    {
      "buffer": 0,
      "byteOffset": 186560,
      "byteLength": 2640,
      "target": 34963
    },
    {
      "buffer": 0,
      "byteOffset": 189200,
      "byteLength": 5472,
      "target": 34962,
      "byteStride": 12
    },
    {
      "buffer": 0,
      "byteOffset": 194672,
      "byteLength": 5472,
      "target": 34962,
      "byteStride": 12
    },
    {
      "buffer": 0,
      "byteOffset": 200144,
      "byteLength": 3648,
      "target": 34962,
      "byteStride": 8
    },
    {
      "buffer": 0,
      "byteOffset": 203792,
      "byteLength": 2736,
      "target": 34963
    }
  ],
  "buffers": [
    {
      "byteLength": 206528,
      "uri": "data:application/octet-stream;base64,"
    }
  ],
  "accessors": [
    {
      "bufferView": 0,
      "componentType": 5126,
      "count": 4522,
      "max": [
        1,
        1,
        1
      ],
      "min": [
        -1,
        -1,
        -1
      ],
      "type": "VEC3"
    },
    {
      "bufferView": 1,
      "componentType": 5126,
      "count": 4522,
      "max": [
        17.39238739013672,
        10.38487434387207,
        17.268028259277344
      ],
      "min": [
        -17.972320556640625,
        -10.38487434387207,
        -18.53858184814453
      ],
      "type": "VEC3"
    },
    {
      "bufferView": 2,
      "componentType": 5126,
      "count": 4522,
      "max": [
        1,
        0
      ],
      "min": [
        0,
        -1
      ],
      "type": "VEC2"
    },
    {
      "bufferView": 3,
      "componentType": 5125,
      "count": 8640,
      "max": [
        4521
      ],
      "min": [
        0
      ],
      "type": "SCALAR"
    },
    {
      "bufferView": 4,
      "componentType": 5126,
      "count": 228,
      "max": [
        0,
        1,
        0
      ],
      "min": [
        0,
        -1,
        0
      ],
      "type": "VEC3"
    },
    {
      "bufferView": 5,
      "componentType": 5126,
      "count": 228,
      "max": [
        19.379446029663086,
        10.738848686218262,
        17.573291778564453
      ],
      "min": [
        -18.47716522216797,
        8.418614387512207,
        -15.233108520507812
      ],
      "type": "VEC3"
    },
    {
      "bufferView": 6,
      "componentType": 5126,
      "count": 228,
      "max": [
        0.5812278389930725,
        0
      ],
      "min": [
        0.2814770042896271,
        -0.6271600723266602
      ],
      "type": "VEC2"
    },
    {
      "bufferView": 7,
      "componentType": 5125,
      "count": 660,
      "max": [
        227
      ],
      "min": [
        0
      ],
      "type": "SCALAR"
    },
    {
      "bufferView": 8,
      "componentType": 5126,
      "count": 456,
      "max": [
        0.9827769994735718,
        0,
        0.9947390556335449
      ],
      "min": [
        -0.9788614511489868,
        0,
        -0.9975066184997559
      ],
      "type": "VEC3"
    },
    {
      "bufferView": 9,
      "componentType": 5126,
      "count": 456,
      "max": [
        19.379446029663086,
        10.738848686218262,
        17.573291778564453
      ],
      "min": [
        -18.47716522216797,
        8.418614387512207,
        -15.233108520507812
      ],
      "type": "VEC3"
    },
    {
      "bufferView": 10,
      "componentType": 5126,
      "count": 456,
      "max": [
        1,
        0
      ],
      "min": [
        0,
        -1
      ],
      "type": "VEC2"
    },
    {
      "bufferView": 11,
      "componentType": 5125,
      "count": 684,
      "max": [
        455
      ],
      "min": [
        0
      ],
      "type": "SCALAR"
    }
  ],
  "materials": [
    {
      "pbrMetallicRoughness": {
        "metallicFactor": 1,
        "roughnessFactor": 1
      },
      "doubleSided": true,
      "name": "pinkHeart",
      "extras": {
        "gltfExtensions": {
          "KHR_materials_pbrSpecularGlossiness": {
            "diffuseFactor": [
              1,
              0.2482802702197365,
              0.9001842179943098,
              1
            ],
            "glossinessFactor": 1,
            "specularFactor": [
              0.12939368513215257,
              0.12939368513215257,
              0.12939368513215257
            ]
          }
        }
      }
    },
    {
      "pbrMetallicRoughness": {
        "metallicFactor": 1,
        "roughnessFactor": 1
      },
      "doubleSided": true,
      "name": "default",
      "extras": {
        "gltfExtensions": {
          "KHR_materials_pbrSpecularGlossiness": {
            "diffuseFactor": [
              1,
              0.9216957723312951,
              0.03421842137872357,
              1
            ],
            "glossinessFactor": 1,
            "specularFactor": [
              0.3361195726854301,
              0.3361195726854301,
              0.3361195726854301
            ]
          }
        }
      }
    },
    {
      "pbrMetallicRoughness": {
        "metallicFactor": 1,
        "roughnessFactor": 1
      },
      "doubleSided": true,
      "name": "heartSparkles",
      "extras": {
        "gltfExtensions": {
          "KHR_materials_pbrSpecularGlossiness": {
            "diffuseFactor": [
              0.9899636880863927,
              0.8269847112061693,
              0.12143180310035867,
              1
            ],
            "glossinessFactor": 0.4,
            "specularFactor": [
              0,
              0,
              0
            ]
          }
        }
      }
    }
  ],
  "meshes": [
    {
      "primitives": [
        {
          "mode": 4,
          "attributes": {
            "NORMAL": 0,
            "POSITION": 1,
            "TEXCOORD_0": 2
          },
          "indices": 3,
          "material": 0
        }
      ]
    },
    {
      "primitives": [
        {
          "mode": 4,
          "attributes": {
            "NORMAL": 4,
            "POSITION": 5,
            "TEXCOORD_0": 6
          },
          "indices": 7,
          "material": 1
        }
      ]
    },
    {
      "primitives": [
        {
          "mode": 4,
          "attributes": {
            "NORMAL": 8,
            "POSITION": 9,
            "TEXCOORD_0": 10
          },
          "indices": 11,
          "material": 2
        }
      ]
    }
  ],
  "cameras": [
    {
      "type": "perspective",
      "perspective": {
        "aspectRatio": 1,
        "yfov": 0.8726646259971648,
        "zfar": 2000,
        "znear": 0.1
      },
      "name": "PerspectiveCamera"
    }
  ]
}